<svg xmlns="http://www.w3.org/2000/svg" id="svg2" width="300" height="400" viewBox="0 0 300 400"><g id="layer1" transform="translate(0 -652.362)"><g id="g8162" transform="translate(-168.708 381.166)scale(.7641)"><path id="path8156" d="m 233.73438,85.414062 c -62.01799,16.681888 -86.27161,21.909318 -166.158208,42.853518 -5.42522,-0.0965 -16.534496,-0.92756 -21.67167,-9.50781 -4.758196,-5.91895 -9.703104,0.68112 -9.437615,6.74218 0.365058,8.33409 0.598367,15.29187 4.480584,19.20117 21.664177,19.95035 29.078065,41.32218 32.222451,65.74024 -0.33085,5.21114 -4.62276,10.00283 3.193359,9.64844 7.869133,-0.58359 84.263689,-6.62945 140.414059,-1.69336 4.64178,0.47659 5.45942,-3.68138 5.15039,-5.39063 -2.64249,-14.6159 24.33847,-61.36206 33.375,-80.47461 1.86244,-3.9391 11.81804,-4.43434 13.9336,-4.93945 -0.13937,0.0348 2.86207,-1.72444 1.0957,-3.91406 C 259.613,110.39214 237.46714,84.235655 233.73438,85.414062 Z m -21.27735,34.902348 c 9.08657,0.0687 13.4201,2.43096 9.83008,8.34961 -11.11464,22.31009 -24.24336,65.93624 -28.21484,65.26367 -61.3062,-0.41953 -87.92695,4.0617 -94.01563,2.04687 -2.199134,-0.81536 -5.411834,-24.89934 -19.332875,-42.17976 -2.189357,-2.71769 -1.286435,-4.69532 2.253906,-5.55664 20.628929,-4.6163 99.796559,-28.14827 129.479359,-27.92375 z" style="fill:#b93c3c;fill-opacity:1;fill-rule:evenodd;stroke:none;stroke-width:1px;stroke-linecap:butt;stroke-linejoin:miter;stroke-opacity:1" transform="translate(219.315 352.303)scale(1.30872)"/><path id="path8160" d="m 367.90999,395.10475 c 0.37549,4.16112 -0.17568,12.40731 6.29079,14.78577 5.6162,0.58559 19.75278,11.44606 16.95438,28.57096 0.0928,187.92712 3.32312,200.16425 0.3131,345.45795 -5.62614,52.57681 6.73403,80.47048 10.82199,86.96513 2.93545,6.59024 6.12648,5.51697 7.60418,1.43859 12.97863,-35.82036 18.66091,-12.55418 14.70196,-102.90205 -0.58086,-150.13908 -2.88642,-315.64694 19.06631,-327.81061 8.67123,-6.96222 20.05495,-28.68846 17.34799,-33.72755 3.10315,-4.97486 -50.62215,-54.03954 -55.12546,-49.49693 -7.36818,8.03967 -36.64575,21.9603 -37.97524,36.71874 z" style="fill:#b93c3c;fill-opacity:1;fill-rule:evenodd;stroke:none;stroke-width:1px;stroke-linecap:butt;stroke-linejoin:miter;stroke-opacity:1"/></g></g></svg>