<svg xmlns="http://www.w3.org/2000/svg" xmlns:xlink="http://www.w3.org/1999/xlink" id="svg2" width="300" height="400" viewBox="0 0 300 400"><g id="layer1" transform="translate(0 -652.362)"><g id="g6641" transform="translate(-207.387 341.03)scale(.89332)"><circle id="path5446" cx="400" cy="572.362" r="160" style="opacity:1;fill:#ffffff;fill-opacity:1;fill-rule:nonzero;stroke:#000000;stroke-width:10.03299999;stroke-linecap:butt;stroke-linejoin:round;stroke-miterlimit:4;stroke-dasharray:none;stroke-dashoffset:0;stroke-opacity:1"/><circle id="path5448" cx="400" cy="572.362" r="145" style="opacity:1;fill:#000037;fill-opacity:1;fill-rule:nonzero;stroke:#000037;stroke-width:10.03299999;stroke-linecap:butt;stroke-linejoin:round;stroke-miterlimit:4;stroke-dasharray:none;stroke-dashoffset:0;stroke-opacity:1"/><g id="g5971" transform="translate(.354)"><path id="path5460" d="m 392.32741,496.48087 c -8.27246,-82.93549 24.08267,-82.93853 15.28731,0" style="fill:none;fill-rule:evenodd;stroke:#ffffff;stroke-width:8.95532227;stroke-linecap:round;stroke-linejoin:miter;stroke-miterlimit:4;stroke-dasharray:none;stroke-opacity:1"/><g id="g5914" transform="translate(-31 -64.5)"><use xlink:href="#path5460" id="use5880" width="100%" height="100%" x="0" y="0" transform="rotate(20 230.025 691.537)"/><use xlink:href="#path5460" id="use5882" width="100%" height="100%" x="0" y="0" transform="rotate(40 325.532 646.348)"/><use xlink:href="#path5460" id="use5884" width="100%" height="100%" x="0" y="0" transform="rotate(60 358.702 630.653)"/><use xlink:href="#path5460" id="use5886" width="100%" height="100%" x="0" y="0" transform="rotate(80 376.35 622.303)"/><use xlink:href="#path5460" id="use5888" width="100%" height="100%" x="0" y="0" transform="rotate(100 387.87 616.852)"/><use xlink:href="#path5460" id="use5890" width="100%" height="100%" x="0" y="0" transform="rotate(120 396.42 612.807)"/><use xlink:href="#path5460" id="use5892" width="100%" height="100%" x="0" y="0" transform="rotate(140 403.39 609.509)"/><use xlink:href="#path5460" id="use5894" width="100%" height="100%" x="0" y="0" transform="rotate(160 409.52 606.608)"/><use xlink:href="#path5460" id="use5896" width="100%" height="100%" x="0" y="0" transform="matrix(-1 0 0 -1 830.56 1207.766)"/><use xlink:href="#path5460" id="use5898" width="100%" height="100%" x="0" y="0" transform="rotate(200 421.04 601.158)"/><use xlink:href="#path5460" id="use5900" width="100%" height="100%" x="0" y="0" transform="rotate(220 427.17 598.258)"/><use xlink:href="#path5460" id="use5902" width="100%" height="100%" x="0" y="0" transform="rotate(240 434.14 594.96)"/><use xlink:href="#path5460" id="use5904" width="100%" height="100%" x="0" y="0" transform="rotate(260 442.69 590.914)"/><use xlink:href="#path5460" id="use5906" width="100%" height="100%" x="0" y="0" transform="rotate(-80 454.21 585.464)"/><use xlink:href="#path5460" id="use5908" width="100%" height="100%" x="0" y="0" transform="rotate(-60 471.859 577.113)"/><use xlink:href="#path5460" id="use5910" width="100%" height="100%" x="0" y="0" transform="rotate(-40 505.028 561.419)"/><use xlink:href="#path5460" id="use5912" width="100%" height="100%" x="0" y="0" transform="rotate(-20 600.536 516.23)"/></g></g><circle id="path5454" cx="400" cy="572.362" r="84.474" style="opacity:1;fill:#ffffff;fill-opacity:1;fill-rule:nonzero;stroke:#000037;stroke-width:10.23999977;stroke-linecap:butt;stroke-linejoin:round;stroke-miterlimit:4;stroke-dasharray:none;stroke-dashoffset:0;stroke-opacity:1"/><circle id="path5992" cx="400" cy="572.362" r="72.315" style="opacity:1;fill:#b93c3c;fill-opacity:1;fill-rule:nonzero;stroke:none;stroke-width:12;stroke-linecap:round;stroke-linejoin:round;stroke-miterlimit:4;stroke-dasharray:none;stroke-dashoffset:0;stroke-opacity:1"/><g id="g6038" transform="translate(-.177 .088)"><path id="path5994" d="m 401.33152,554.24492 c -3.14542,-9.94018 -29.56798,-32.56818 -1.22213,-34.01501 29.36983,1.60064 0.87135,23.52895 -1.71866,34.17839" style="fill:none;fill-rule:evenodd;stroke:#ffffff;stroke-width:23.10970306;stroke-linecap:butt;stroke-linejoin:miter;stroke-miterlimit:4;stroke-dasharray:none;stroke-opacity:1"/><path id="path6018" d="m 400,555.19145 0,-25.65771" style="fill:none;fill-rule:evenodd;stroke:#b93c3c;stroke-width:6;stroke-linecap:round;stroke-linejoin:round;stroke-miterlimit:4;stroke-dasharray:none;stroke-opacity:1"/><circle id="path6028" cx="400" cy="527.834" r="4.819" style="opacity:1;fill:#b93c3c;fill-opacity:1;fill-rule:nonzero;stroke:none;stroke-width:3;stroke-linecap:round;stroke-linejoin:round;stroke-miterlimit:4;stroke-dasharray:none;stroke-dashoffset:0;stroke-opacity:1"/><path id="path6030" d="m 404.6875,557.4872 6.5651,-16.10951" style="fill:none;fill-rule:evenodd;stroke:#b93c3c;stroke-width:4;stroke-linecap:round;stroke-linejoin:miter;stroke-miterlimit:4;stroke-dasharray:none;stroke-opacity:1"/><use xlink:href="#path6030" id="use6032" width="100%" height="100%" x="0" y="0" transform="matrix(-1 0 0 1 799.938 0)"/></g><circle id="path6010" cx="400" cy="572.362" r="16.035" style="opacity:1;fill:#ffffff;fill-opacity:1;fill-rule:nonzero;stroke:#b93c3c;stroke-width:6.66957808;stroke-linecap:round;stroke-linejoin:round;stroke-miterlimit:4;stroke-dasharray:none;stroke-dashoffset:0;stroke-opacity:1"/><circle id="path6016" cx="400" cy="572.362" r="8.537" style="opacity:1;fill:#b93c3c;fill-opacity:1;fill-rule:nonzero;stroke:none;stroke-width:6;stroke-linecap:round;stroke-linejoin:round;stroke-miterlimit:4;stroke-dasharray:none;stroke-dashoffset:0;stroke-opacity:1"/><use xlink:href="#g6038" id="use6047" width="100%" height="100%" x="0" y="0" transform="rotate(-72 399.973 572.358)"/><use xlink:href="#use6047" id="use6049" width="100%" height="100%" x="0" y="0" transform="rotate(-72 399.973 572.358)"/><use xlink:href="#use6049" id="use6051" width="100%" height="100%" x="0" y="0" transform="rotate(-72 399.973 572.358)"/><use xlink:href="#use6051" id="use6053" width="100%" height="100%" x="0" y="0" transform="rotate(-72 399.973 572.358)"/></g></g></svg>