<svg xmlns="http://www.w3.org/2000/svg" xmlns:xlink="http://www.w3.org/1999/xlink" id="svg2" width="300" height="400" viewBox="0 0 300 400"><g id="layer1" transform="translate(0 -652.362)"><g id="g7625" transform="translate(0 -.818)"><g id="g4360" transform="translate(512.082 490.476)scale(.76584)"><circle id="path15137" cx="-472.783" cy="341.256" r="107.567" style="opacity:1;fill:#ffffff;fill-opacity:1;fill-rule:nonzero;stroke:#000000;stroke-width:17.21711159;stroke-linecap:butt;stroke-linejoin:round;stroke-miterlimit:4;stroke-dasharray:none;stroke-dashoffset:0;stroke-opacity:1"/><circle id="path15137-2" cx="-472.783" cy="341.627" r="87.813" style="opacity:1;fill:#000037;fill-opacity:1;fill-rule:nonzero;stroke:none;stroke-width:0;stroke-linecap:butt;stroke-linejoin:round;stroke-miterlimit:4;stroke-dasharray:none;stroke-dashoffset:0;stroke-opacity:0"/><g id="g4247" transform="matrix(.10477 0 0 .08588 -506.329 359.108)"><path id="circle15184" d="m -93.329197,-74.125463 a 163.9187,163.9187 0 0 1 -224.595053,-13.081173 163.9187,163.9187 0 0 1 0,-224.975674 163.9187,163.9187 0 0 1 224.595055,-13.08117" mask="none" style="opacity:1;fill:none;fill-opacity:1;fill-rule:nonzero;stroke:#ffffff;stroke-width:125.71019745;stroke-linecap:round;stroke-linejoin:round;stroke-miterlimit:4;stroke-dasharray:none;stroke-dashoffset:0;stroke-opacity:1"/></g><use xlink:href="#g4247" id="use4252" width="100%" height="100%" x="0" y="0" transform="rotate(-60 -472.858 342.066)"/><use xlink:href="#use4252" id="use4254" width="100%" height="100%" x="0" y="0" transform="rotate(-60 -473.886 342.721)"/><use xlink:href="#use4254" id="use4256" width="100%" height="100%" x="0" y="0" transform="rotate(-60 -473.886 342.721)"/><use xlink:href="#use4256" id="use4258" width="100%" height="100%" x="0" y="0" transform="rotate(-60 -473.886 342.721)"/><use xlink:href="#use4258" id="use4260" width="100%" height="100%" x="0" y="0" transform="rotate(-60 -473.886 342.721)"/><circle id="path15154-5" cx="-472.931" cy="341.516" r="18.188" style="opacity:1;fill:none;fill-opacity:1;fill-rule:nonzero;stroke:#ffffff;stroke-width:12.28584385;stroke-linecap:butt;stroke-linejoin:round;stroke-miterlimit:4;stroke-dasharray:none;stroke-dashoffset:0;stroke-opacity:1"/></g><g id="g7557" transform="translate(512.082 692.976)scale(.76584)"><circle id="circle7559" cx="-472.783" cy="341.256" r="107.567" style="opacity:1;fill:#ffffff;fill-opacity:1;fill-rule:nonzero;stroke:#000000;stroke-width:17.21711159;stroke-linecap:butt;stroke-linejoin:round;stroke-miterlimit:4;stroke-dasharray:none;stroke-dashoffset:0;stroke-opacity:1"/><circle id="circle7561" cx="-472.783" cy="341.627" r="87.813" style="opacity:1;fill:#000037;fill-opacity:1;fill-rule:nonzero;stroke:none;stroke-width:0;stroke-linecap:butt;stroke-linejoin:round;stroke-miterlimit:4;stroke-dasharray:none;stroke-dashoffset:0;stroke-opacity:0"/><g id="g7563" transform="matrix(.10477 0 0 .08588 -506.329 359.108)"><path id="path7565" d="m -93.329197,-74.125463 a 163.9187,163.9187 0 0 1 -224.595053,-13.081173 163.9187,163.9187 0 0 1 0,-224.975674 163.9187,163.9187 0 0 1 224.595055,-13.08117" mask="none" style="opacity:1;fill:none;fill-opacity:1;fill-rule:nonzero;stroke:#ffffff;stroke-width:125.71019745;stroke-linecap:round;stroke-linejoin:round;stroke-miterlimit:4;stroke-dasharray:none;stroke-dashoffset:0;stroke-opacity:1"/></g><use xlink:href="#g4247" id="use7567" width="100%" height="100%" x="0" y="0" transform="rotate(-60 -472.858 342.066)"/><use xlink:href="#use4252" id="use7569" width="100%" height="100%" x="0" y="0" transform="rotate(-60 -473.886 342.721)"/><use xlink:href="#use4254" id="use7571" width="100%" height="100%" x="0" y="0" transform="rotate(-60 -473.886 342.721)"/><use xlink:href="#use4256" id="use7573" width="100%" height="100%" x="0" y="0" transform="rotate(-60 -473.886 342.721)"/><use xlink:href="#use4258" id="use7575" width="100%" height="100%" x="0" y="0" transform="rotate(-60 -473.886 342.721)"/><circle id="circle7577" cx="-472.931" cy="341.516" r="18.188" style="opacity:1;fill:none;fill-opacity:1;fill-rule:nonzero;stroke:#ffffff;stroke-width:12.28584385;stroke-linecap:butt;stroke-linejoin:round;stroke-miterlimit:4;stroke-dasharray:none;stroke-dashoffset:0;stroke-opacity:1"/></g></g></g></svg>