<svg xmlns="http://www.w3.org/2000/svg" id="svg2" width="300" height="400" viewBox="0 0 300 400"><g id="layer1" transform="translate(0 -652.362)"><g id="g7705" transform="translate(0 .021)"><g id="g7649" transform="translate(286.168 231.362)scale(1.02274)"><circle id="circle7651" cx="-205.976" cy="485.489" r="59.759" style="opacity:1;fill:#000000;fill-opacity:1;fill-rule:nonzero;stroke:none;stroke-width:8;stroke-linecap:round;stroke-linejoin:round;stroke-miterlimit:4;stroke-dasharray:none;stroke-dashoffset:0;stroke-opacity:1"/><circle id="circle7653" cx="-205.976" cy="485.489" r="45.07" style="opacity:1;fill:#ffffff;fill-opacity:1;fill-rule:nonzero;stroke:none;stroke-width:8;stroke-linecap:round;stroke-linejoin:round;stroke-miterlimit:4;stroke-dasharray:none;stroke-dashoffset:0;stroke-opacity:1"/><circle id="circle7655" cx="-205.976" cy="485.489" r="38.811" style="opacity:1;fill:#000037;fill-opacity:1;fill-rule:nonzero;stroke:none;stroke-width:8;stroke-linecap:round;stroke-linejoin:round;stroke-miterlimit:4;stroke-dasharray:none;stroke-dashoffset:0;stroke-opacity:1"/><path id="path7657" d="m -188.24619,-484.05789 a 21.068708,21.06871 0 0 1 -20.6726,21.06498 21.068708,21.06871 0 0 1 -21.44992,-20.27292 21.068708,21.06871 0 0 1 19.86607,-21.82727 21.068708,21.06871 0 0 1 22.1969,19.4522" style="opacity:1;fill:none;fill-opacity:0.29670332;fill-rule:nonzero;stroke:#ffffff;stroke-width:6.60038757;stroke-linecap:round;stroke-linejoin:round;stroke-miterlimit:4;stroke-dasharray:13.20077528,13.20077528;stroke-dashoffset:0;stroke-opacity:1" transform="rotate(-.395)scale(1 -1)"/><circle id="circle7659" cx="-205.976" cy="485.489" r="7.853" style="opacity:1;fill:#ffffff;fill-opacity:1;fill-rule:nonzero;stroke:none;stroke-width:8;stroke-linecap:round;stroke-linejoin:round;stroke-miterlimit:4;stroke-dasharray:none;stroke-dashoffset:0;stroke-opacity:1"/><circle id="circle7661" cx="-205.976" cy="485.489" r="3.586" style="opacity:1;fill:#000037;fill-opacity:1;fill-rule:nonzero;stroke:none;stroke-width:8;stroke-linecap:round;stroke-linejoin:round;stroke-miterlimit:4;stroke-dasharray:none;stroke-dashoffset:0;stroke-opacity:1"/></g><g id="g7677" transform="translate(360.65 355.768)scale(1.02274)"><circle id="circle7679" cx="-205.976" cy="485.489" r="59.759" style="opacity:1;fill:#000000;fill-opacity:1;fill-rule:nonzero;stroke:none;stroke-width:8;stroke-linecap:round;stroke-linejoin:round;stroke-miterlimit:4;stroke-dasharray:none;stroke-dashoffset:0;stroke-opacity:1"/><circle id="circle7681" cx="-205.976" cy="485.489" r="45.07" style="opacity:1;fill:#ffffff;fill-opacity:1;fill-rule:nonzero;stroke:none;stroke-width:8;stroke-linecap:round;stroke-linejoin:round;stroke-miterlimit:4;stroke-dasharray:none;stroke-dashoffset:0;stroke-opacity:1"/><circle id="circle7683" cx="-205.976" cy="485.489" r="38.811" style="opacity:1;fill:#b93c3c;fill-opacity:1;fill-rule:nonzero;stroke:none;stroke-width:8;stroke-linecap:round;stroke-linejoin:round;stroke-miterlimit:4;stroke-dasharray:none;stroke-dashoffset:0;stroke-opacity:1"/><path id="path7685" d="m -188.24619,-484.05789 a 21.068708,21.06871 0 0 1 -20.6726,21.06498 21.068708,21.06871 0 0 1 -21.44992,-20.27292 21.068708,21.06871 0 0 1 19.86607,-21.82727 21.068708,21.06871 0 0 1 22.1969,19.4522" style="opacity:1;fill:none;fill-opacity:0.29670332;fill-rule:nonzero;stroke:#ffffff;stroke-width:6.60038757;stroke-linecap:round;stroke-linejoin:round;stroke-miterlimit:4;stroke-dasharray:13.20077528,13.20077528;stroke-dashoffset:0;stroke-opacity:1" transform="rotate(-.395)scale(1 -1)"/><circle id="circle7687" cx="-205.976" cy="485.489" r="7.853" style="opacity:1;fill:#ffffff;fill-opacity:1;fill-rule:nonzero;stroke:none;stroke-width:8;stroke-linecap:round;stroke-linejoin:round;stroke-miterlimit:4;stroke-dasharray:none;stroke-dashoffset:0;stroke-opacity:1"/><circle id="circle7689" cx="-205.976" cy="485.489" r="3.586" style="opacity:1;fill:#b93c3c;fill-opacity:1;fill-rule:nonzero;stroke:none;stroke-width:8;stroke-linecap:round;stroke-linejoin:round;stroke-miterlimit:4;stroke-dasharray:none;stroke-dashoffset:0;stroke-opacity:1"/></g><g id="g7691" transform="translate(435.137 480.3)scale(1.02274)"><circle id="circle7693" cx="-205.976" cy="485.489" r="59.759" style="opacity:1;fill:#000000;fill-opacity:1;fill-rule:nonzero;stroke:none;stroke-width:8;stroke-linecap:round;stroke-linejoin:round;stroke-miterlimit:4;stroke-dasharray:none;stroke-dashoffset:0;stroke-opacity:1"/><circle id="circle7695" cx="-205.976" cy="485.489" r="45.07" style="opacity:1;fill:#ffffff;fill-opacity:1;fill-rule:nonzero;stroke:none;stroke-width:8;stroke-linecap:round;stroke-linejoin:round;stroke-miterlimit:4;stroke-dasharray:none;stroke-dashoffset:0;stroke-opacity:1"/><circle id="circle7697" cx="-205.976" cy="485.489" r="38.811" style="opacity:1;fill:#000037;fill-opacity:1;fill-rule:nonzero;stroke:none;stroke-width:8;stroke-linecap:round;stroke-linejoin:round;stroke-miterlimit:4;stroke-dasharray:none;stroke-dashoffset:0;stroke-opacity:1"/><path id="path7699" d="m -188.24619,-484.05789 a 21.068708,21.06871 0 0 1 -20.6726,21.06498 21.068708,21.06871 0 0 1 -21.44992,-20.27292 21.068708,21.06871 0 0 1 19.86607,-21.82727 21.068708,21.06871 0 0 1 22.1969,19.4522" style="opacity:1;fill:none;fill-opacity:0.29670332;fill-rule:nonzero;stroke:#ffffff;stroke-width:6.60038757;stroke-linecap:round;stroke-linejoin:round;stroke-miterlimit:4;stroke-dasharray:13.20077528,13.20077528;stroke-dashoffset:0;stroke-opacity:1" transform="rotate(-.395)scale(1 -1)"/><circle id="circle7701" cx="-205.976" cy="485.489" r="7.853" style="opacity:1;fill:#ffffff;fill-opacity:1;fill-rule:nonzero;stroke:none;stroke-width:8;stroke-linecap:round;stroke-linejoin:round;stroke-miterlimit:4;stroke-dasharray:none;stroke-dashoffset:0;stroke-opacity:1"/><circle id="circle7703" cx="-205.976" cy="485.489" r="3.586" style="opacity:1;fill:#000037;fill-opacity:1;fill-rule:nonzero;stroke:none;stroke-width:8;stroke-linecap:round;stroke-linejoin:round;stroke-miterlimit:4;stroke-dasharray:none;stroke-dashoffset:0;stroke-opacity:1"/></g></g></g></svg>