<svg xmlns="http://www.w3.org/2000/svg" id="svg2" width="300" height="400" viewBox="0 0 300 400"><g id="layer1" transform="translate(0 -652.362)"><g id="g7912" transform="translate(0 -1535.322)"><g id="g7840" transform="translate(288.325 1781.019)scale(1.02274)"><circle id="circle7842" cx="-205.976" cy="485.489" r="59.759" style="opacity:1;fill:#000000;fill-opacity:1;fill-rule:nonzero;stroke:none;stroke-width:8;stroke-linecap:round;stroke-linejoin:round;stroke-miterlimit:4;stroke-dasharray:none;stroke-dashoffset:0;stroke-opacity:1"/><circle id="circle7844" cx="-205.976" cy="485.489" r="45.07" style="opacity:1;fill:#ffffff;fill-opacity:1;fill-rule:nonzero;stroke:none;stroke-width:8;stroke-linecap:round;stroke-linejoin:round;stroke-miterlimit:4;stroke-dasharray:none;stroke-dashoffset:0;stroke-opacity:1"/><circle id="circle7846" cx="-205.976" cy="485.489" r="38.811" style="opacity:1;fill:#000037;fill-opacity:1;fill-rule:nonzero;stroke:none;stroke-width:8;stroke-linecap:round;stroke-linejoin:round;stroke-miterlimit:4;stroke-dasharray:none;stroke-dashoffset:0;stroke-opacity:1"/><path id="path7848" d="m -188.24619,-484.05789 a 21.068708,21.06871 0 0 1 -20.6726,21.06498 21.068708,21.06871 0 0 1 -21.44992,-20.27292 21.068708,21.06871 0 0 1 19.86607,-21.82727 21.068708,21.06871 0 0 1 22.1969,19.4522" style="opacity:1;fill:none;fill-opacity:0.29670332;fill-rule:nonzero;stroke:#ffffff;stroke-width:6.60038757;stroke-linecap:round;stroke-linejoin:round;stroke-miterlimit:4;stroke-dasharray:13.20077528,13.20077528;stroke-dashoffset:0;stroke-opacity:1" transform="rotate(-.395)scale(1 -1)"/><circle id="circle7850" cx="-205.976" cy="485.489" r="7.853" style="opacity:1;fill:#ffffff;fill-opacity:1;fill-rule:nonzero;stroke:none;stroke-width:8;stroke-linecap:round;stroke-linejoin:round;stroke-miterlimit:4;stroke-dasharray:none;stroke-dashoffset:0;stroke-opacity:1"/><circle id="circle7852" cx="-205.976" cy="485.489" r="3.586" style="opacity:1;fill:#000037;fill-opacity:1;fill-rule:nonzero;stroke:none;stroke-width:8;stroke-linecap:round;stroke-linejoin:round;stroke-miterlimit:4;stroke-dasharray:none;stroke-dashoffset:0;stroke-opacity:1"/></g><g id="g7854" transform="translate(432.443 1781.019)scale(1.02274)"><circle id="circle7856" cx="-205.976" cy="485.489" r="59.759" style="opacity:1;fill:#000000;fill-opacity:1;fill-rule:nonzero;stroke:none;stroke-width:8;stroke-linecap:round;stroke-linejoin:round;stroke-miterlimit:4;stroke-dasharray:none;stroke-dashoffset:0;stroke-opacity:1"/><circle id="circle7858" cx="-205.976" cy="485.489" r="45.07" style="opacity:1;fill:#ffffff;fill-opacity:1;fill-rule:nonzero;stroke:none;stroke-width:8;stroke-linecap:round;stroke-linejoin:round;stroke-miterlimit:4;stroke-dasharray:none;stroke-dashoffset:0;stroke-opacity:1"/><circle id="circle7860" cx="-205.976" cy="485.489" r="38.811" style="opacity:1;fill:#000037;fill-opacity:1;fill-rule:nonzero;stroke:none;stroke-width:8;stroke-linecap:round;stroke-linejoin:round;stroke-miterlimit:4;stroke-dasharray:none;stroke-dashoffset:0;stroke-opacity:1"/><path id="path7862" d="m -188.24619,-484.05789 a 21.068708,21.06871 0 0 1 -20.6726,21.06498 21.068708,21.06871 0 0 1 -21.44992,-20.27292 21.068708,21.06871 0 0 1 19.86607,-21.82727 21.068708,21.06871 0 0 1 22.1969,19.4522" style="opacity:1;fill:none;fill-opacity:0.29670332;fill-rule:nonzero;stroke:#ffffff;stroke-width:6.60038757;stroke-linecap:round;stroke-linejoin:round;stroke-miterlimit:4;stroke-dasharray:13.20077528,13.20077528;stroke-dashoffset:0;stroke-opacity:1" transform="rotate(-.395)scale(1 -1)"/><circle id="circle7864" cx="-205.976" cy="485.489" r="7.853" style="opacity:1;fill:#ffffff;fill-opacity:1;fill-rule:nonzero;stroke:none;stroke-width:8;stroke-linecap:round;stroke-linejoin:round;stroke-miterlimit:4;stroke-dasharray:none;stroke-dashoffset:0;stroke-opacity:1"/><circle id="circle7866" cx="-205.976" cy="485.489" r="3.586" style="opacity:1;fill:#000037;fill-opacity:1;fill-rule:nonzero;stroke:none;stroke-width:8;stroke-linecap:round;stroke-linejoin:round;stroke-miterlimit:4;stroke-dasharray:none;stroke-dashoffset:0;stroke-opacity:1"/></g><g id="g7868" transform="translate(288.325 2000.95)scale(1.02274)"><circle id="circle7870" cx="-205.976" cy="485.489" r="59.759" style="opacity:1;fill:#000000;fill-opacity:1;fill-rule:nonzero;stroke:none;stroke-width:8;stroke-linecap:round;stroke-linejoin:round;stroke-miterlimit:4;stroke-dasharray:none;stroke-dashoffset:0;stroke-opacity:1"/><circle id="circle7872" cx="-205.976" cy="485.489" r="45.07" style="opacity:1;fill:#ffffff;fill-opacity:1;fill-rule:nonzero;stroke:none;stroke-width:8;stroke-linecap:round;stroke-linejoin:round;stroke-miterlimit:4;stroke-dasharray:none;stroke-dashoffset:0;stroke-opacity:1"/><circle id="circle7874" cx="-205.976" cy="485.489" r="38.811" style="opacity:1;fill:#000037;fill-opacity:1;fill-rule:nonzero;stroke:none;stroke-width:8;stroke-linecap:round;stroke-linejoin:round;stroke-miterlimit:4;stroke-dasharray:none;stroke-dashoffset:0;stroke-opacity:1"/><path id="path7876" d="m -188.24619,-484.05789 a 21.068708,21.06871 0 0 1 -20.6726,21.06498 21.068708,21.06871 0 0 1 -21.44992,-20.27292 21.068708,21.06871 0 0 1 19.86607,-21.82727 21.068708,21.06871 0 0 1 22.1969,19.4522" style="opacity:1;fill:none;fill-opacity:0.29670332;fill-rule:nonzero;stroke:#ffffff;stroke-width:6.60038757;stroke-linecap:round;stroke-linejoin:round;stroke-miterlimit:4;stroke-dasharray:13.20077528,13.20077528;stroke-dashoffset:0;stroke-opacity:1" transform="rotate(-.395)scale(1 -1)"/><circle id="circle7879" cx="-205.976" cy="485.489" r="7.853" style="opacity:1;fill:#ffffff;fill-opacity:1;fill-rule:nonzero;stroke:none;stroke-width:8;stroke-linecap:round;stroke-linejoin:round;stroke-miterlimit:4;stroke-dasharray:none;stroke-dashoffset:0;stroke-opacity:1"/><circle id="circle7881" cx="-205.976" cy="485.489" r="3.586" style="opacity:1;fill:#000037;fill-opacity:1;fill-rule:nonzero;stroke:none;stroke-width:8;stroke-linecap:round;stroke-linejoin:round;stroke-miterlimit:4;stroke-dasharray:none;stroke-dashoffset:0;stroke-opacity:1"/></g><g id="g7883" transform="translate(432.443 2000.95)scale(1.02274)"><circle id="circle7885" cx="-205.976" cy="485.489" r="59.759" style="opacity:1;fill:#000000;fill-opacity:1;fill-rule:nonzero;stroke:none;stroke-width:8;stroke-linecap:round;stroke-linejoin:round;stroke-miterlimit:4;stroke-dasharray:none;stroke-dashoffset:0;stroke-opacity:1"/><circle id="circle7887" cx="-205.976" cy="485.489" r="45.07" style="opacity:1;fill:#ffffff;fill-opacity:1;fill-rule:nonzero;stroke:none;stroke-width:8;stroke-linecap:round;stroke-linejoin:round;stroke-miterlimit:4;stroke-dasharray:none;stroke-dashoffset:0;stroke-opacity:1"/><circle id="circle7889" cx="-205.976" cy="485.489" r="38.811" style="opacity:1;fill:#000037;fill-opacity:1;fill-rule:nonzero;stroke:none;stroke-width:8;stroke-linecap:round;stroke-linejoin:round;stroke-miterlimit:4;stroke-dasharray:none;stroke-dashoffset:0;stroke-opacity:1"/><path id="path7891" d="m -188.24619,-484.05789 a 21.068708,21.06871 0 0 1 -20.6726,21.06498 21.068708,21.06871 0 0 1 -21.44992,-20.27292 21.068708,21.06871 0 0 1 19.86607,-21.82727 21.068708,21.06871 0 0 1 22.1969,19.4522" style="opacity:1;fill:none;fill-opacity:0.29670332;fill-rule:nonzero;stroke:#ffffff;stroke-width:6.60038757;stroke-linecap:round;stroke-linejoin:round;stroke-miterlimit:4;stroke-dasharray:13.20077528,13.20077528;stroke-dashoffset:0;stroke-opacity:1" transform="rotate(-.395)scale(1 -1)"/><circle id="circle7893" cx="-205.976" cy="485.489" r="7.853" style="opacity:1;fill:#ffffff;fill-opacity:1;fill-rule:nonzero;stroke:none;stroke-width:8;stroke-linecap:round;stroke-linejoin:round;stroke-miterlimit:4;stroke-dasharray:none;stroke-dashoffset:0;stroke-opacity:1"/><circle id="circle7895" cx="-205.976" cy="485.489" r="3.586" style="opacity:1;fill:#000037;fill-opacity:1;fill-rule:nonzero;stroke:none;stroke-width:8;stroke-linecap:round;stroke-linejoin:round;stroke-miterlimit:4;stroke-dasharray:none;stroke-dashoffset:0;stroke-opacity:1"/></g></g></g></svg>