<svg xmlns="http://www.w3.org/2000/svg" id="svg2" width="300" height="400" viewBox="0 0 300 400"><g id="layer1" transform="translate(0 -652.362)"><g id="g8535" transform="translate(0 -10.378)"><circle id="circle8511" cx="100.455" cy="736.819" r="61.118" style="opacity:1;fill:#000000;fill-opacity:1;fill-rule:nonzero;stroke:none;stroke-width:8;stroke-linecap:round;stroke-linejoin:round;stroke-miterlimit:4;stroke-dasharray:none;stroke-dashoffset:0;stroke-opacity:1"/><circle id="circle8100" cx="100.568" cy="988.504" r="61.118" style="opacity:1;fill:#000000;fill-opacity:1;fill-rule:nonzero;stroke:none;stroke-width:8;stroke-linecap:round;stroke-linejoin:round;stroke-miterlimit:4;stroke-dasharray:none;stroke-dashoffset:0;stroke-opacity:1"/><circle id="circle8114" cx="199.498" cy="988.504" r="61.118" style="opacity:1;fill:#000000;fill-opacity:1;fill-rule:nonzero;stroke:none;stroke-width:8;stroke-linecap:round;stroke-linejoin:round;stroke-miterlimit:4;stroke-dasharray:none;stroke-dashoffset:0;stroke-opacity:1"/><circle id="circle8070" cx="199.498" cy="901.176" r="61.118" style="opacity:1;fill:#000000;fill-opacity:1;fill-rule:nonzero;stroke:none;stroke-width:8;stroke-linecap:round;stroke-linejoin:round;stroke-miterlimit:4;stroke-dasharray:none;stroke-dashoffset:0;stroke-opacity:1"/><circle id="circle7981" cx="100.568" cy="901.176" r="61.118" style="opacity:1;fill:#000000;fill-opacity:1;fill-rule:nonzero;stroke:none;stroke-width:8;stroke-linecap:round;stroke-linejoin:round;stroke-miterlimit:4;stroke-dasharray:none;stroke-dashoffset:0;stroke-opacity:1"/><circle id="circle7983" cx="100.568" cy="901.176" r="46.095" style="opacity:1;fill:#ffffff;fill-opacity:1;fill-rule:nonzero;stroke:none;stroke-width:8;stroke-linecap:round;stroke-linejoin:round;stroke-miterlimit:4;stroke-dasharray:none;stroke-dashoffset:0;stroke-opacity:1"/><circle id="circle7985" cx="100.568" cy="901.176" r="39.693" style="opacity:1;fill:#b93c3c;fill-opacity:1;fill-rule:nonzero;stroke:none;stroke-width:8;stroke-linecap:round;stroke-linejoin:round;stroke-miterlimit:4;stroke-dasharray:none;stroke-dashoffset:0;stroke-opacity:1"/><path id="path7988" d="m 115.9051,-901.84741 a 21.547712,21.547714 0 0 1 -21.14261,21.5439 21.547712,21.547714 0 0 1 -21.937586,-20.73383 21.547712,21.547714 0 0 1 20.317733,-22.32352 21.547712,21.547714 0 0 1 22.701553,19.89445" style="opacity:1;fill:none;fill-opacity:0.29670332;fill-rule:nonzero;stroke:#ffffff;stroke-width:6.75044918;stroke-linecap:round;stroke-linejoin:round;stroke-miterlimit:4;stroke-dasharray:13.50089867,13.50089867;stroke-dashoffset:0;stroke-opacity:1" transform="rotate(-.395)scale(1 -1)"/><circle id="circle7990" cx="100.568" cy="901.176" r="8.032" style="opacity:1;fill:#ffffff;fill-opacity:1;fill-rule:nonzero;stroke:none;stroke-width:8;stroke-linecap:round;stroke-linejoin:round;stroke-miterlimit:4;stroke-dasharray:none;stroke-dashoffset:0;stroke-opacity:1"/><circle id="circle7992" cx="100.568" cy="901.176" r="3.668" style="opacity:1;fill:#b93c3c;fill-opacity:1;fill-rule:nonzero;stroke:none;stroke-width:8;stroke-linecap:round;stroke-linejoin:round;stroke-miterlimit:4;stroke-dasharray:none;stroke-dashoffset:0;stroke-opacity:1"/><circle id="circle8072" cx="199.498" cy="901.176" r="46.095" style="opacity:1;fill:#ffffff;fill-opacity:1;fill-rule:nonzero;stroke:none;stroke-width:8;stroke-linecap:round;stroke-linejoin:round;stroke-miterlimit:4;stroke-dasharray:none;stroke-dashoffset:0;stroke-opacity:1"/><circle id="circle8074" cx="199.498" cy="901.176" r="39.693" style="opacity:1;fill:#b93c3c;fill-opacity:1;fill-rule:nonzero;stroke:none;stroke-width:8;stroke-linecap:round;stroke-linejoin:round;stroke-miterlimit:4;stroke-dasharray:none;stroke-dashoffset:0;stroke-opacity:1"/><path id="path8076" d="m 214.83229,-902.52917 a 21.547712,21.547714 0 0 1 -21.14261,21.5439 21.547712,21.547714 0 0 1 -21.93758,-20.73383 21.547712,21.547714 0 0 1 20.31773,-22.32352 21.547712,21.547714 0 0 1 22.70155,19.89445" style="opacity:1;fill:none;fill-opacity:0.29670332;fill-rule:nonzero;stroke:#ffffff;stroke-width:6.75044918;stroke-linecap:round;stroke-linejoin:round;stroke-miterlimit:4;stroke-dasharray:13.50089867,13.50089867;stroke-dashoffset:0;stroke-opacity:1" transform="rotate(-.395)scale(1 -1)"/><circle id="circle8078" cx="199.498" cy="901.176" r="8.032" style="opacity:1;fill:#ffffff;fill-opacity:1;fill-rule:nonzero;stroke:none;stroke-width:8;stroke-linecap:round;stroke-linejoin:round;stroke-miterlimit:4;stroke-dasharray:none;stroke-dashoffset:0;stroke-opacity:1"/><circle id="circle8080" cx="199.498" cy="901.176" r="3.668" style="opacity:1;fill:#b93c3c;fill-opacity:1;fill-rule:nonzero;stroke:none;stroke-width:8;stroke-linecap:round;stroke-linejoin:round;stroke-miterlimit:4;stroke-dasharray:none;stroke-dashoffset:0;stroke-opacity:1"/><circle id="circle8102" cx="100.568" cy="988.504" r="46.095" style="opacity:1;fill:#ffffff;fill-opacity:1;fill-rule:nonzero;stroke:none;stroke-width:8;stroke-linecap:round;stroke-linejoin:round;stroke-miterlimit:4;stroke-dasharray:none;stroke-dashoffset:0;stroke-opacity:1"/><circle id="circle8104" cx="100.568" cy="988.504" r="39.693" style="opacity:1;fill:#b93c3c;fill-opacity:1;fill-rule:nonzero;stroke:none;stroke-width:8;stroke-linecap:round;stroke-linejoin:round;stroke-miterlimit:4;stroke-dasharray:none;stroke-dashoffset:0;stroke-opacity:1"/><path id="path8106" d="m 115.3033,-989.17303 a 21.547712,21.547714 0 0 1 -21.142609,21.5439 21.547712,21.547714 0 0 1 -21.937586,-20.73383 21.547712,21.547714 0 0 1 20.317733,-22.32354 21.547712,21.547714 0 0 1 22.701552,19.89447" style="opacity:1;fill:none;fill-opacity:0.29670332;fill-rule:nonzero;stroke:#ffffff;stroke-width:6.75044918;stroke-linecap:round;stroke-linejoin:round;stroke-miterlimit:4;stroke-dasharray:13.50089867,13.50089867;stroke-dashoffset:0;stroke-opacity:1" transform="rotate(-.395)scale(1 -1)"/><circle id="circle8108" cx="100.568" cy="988.504" r="8.032" style="opacity:1;fill:#ffffff;fill-opacity:1;fill-rule:nonzero;stroke:none;stroke-width:8;stroke-linecap:round;stroke-linejoin:round;stroke-miterlimit:4;stroke-dasharray:none;stroke-dashoffset:0;stroke-opacity:1"/><circle id="circle8110" cx="100.568" cy="988.504" r="3.668" style="opacity:1;fill:#b93c3c;fill-opacity:1;fill-rule:nonzero;stroke:none;stroke-width:8;stroke-linecap:round;stroke-linejoin:round;stroke-miterlimit:4;stroke-dasharray:none;stroke-dashoffset:0;stroke-opacity:1"/><circle id="circle8116" cx="199.498" cy="988.504" r="46.095" style="opacity:1;fill:#ffffff;fill-opacity:1;fill-rule:nonzero;stroke:none;stroke-width:8;stroke-linecap:round;stroke-linejoin:round;stroke-miterlimit:4;stroke-dasharray:none;stroke-dashoffset:0;stroke-opacity:1"/><circle id="circle8118" cx="199.498" cy="988.504" r="39.693" style="opacity:1;fill:#b93c3c;fill-opacity:1;fill-rule:nonzero;stroke:none;stroke-width:8;stroke-linecap:round;stroke-linejoin:round;stroke-miterlimit:4;stroke-dasharray:none;stroke-dashoffset:0;stroke-opacity:1"/><path id="path8120" d="m 214.23048,-989.8548 a 21.547712,21.547714 0 0 1 -21.1426,21.54391 21.547712,21.547714 0 0 1 -21.93759,-20.73384 21.547712,21.547714 0 0 1 20.31773,-22.32347 21.547712,21.547714 0 0 1 22.70155,19.89441" style="opacity:1;fill:none;fill-opacity:0.29670332;fill-rule:nonzero;stroke:#ffffff;stroke-width:6.75044918;stroke-linecap:round;stroke-linejoin:round;stroke-miterlimit:4;stroke-dasharray:13.50089867,13.50089867;stroke-dashoffset:0;stroke-opacity:1" transform="rotate(-.395)scale(1 -1)"/><circle id="circle8122" cx="199.498" cy="988.504" r="8.032" style="opacity:1;fill:#ffffff;fill-opacity:1;fill-rule:nonzero;stroke:none;stroke-width:8;stroke-linecap:round;stroke-linejoin:round;stroke-miterlimit:4;stroke-dasharray:none;stroke-dashoffset:0;stroke-opacity:1"/><circle id="circle8124" cx="199.498" cy="988.504" r="3.668" style="opacity:1;fill:#b93c3c;fill-opacity:1;fill-rule:nonzero;stroke:none;stroke-width:8;stroke-linecap:round;stroke-linejoin:round;stroke-miterlimit:4;stroke-dasharray:none;stroke-dashoffset:0;stroke-opacity:1"/><circle id="circle8497" cx="199.627" cy="736.819" r="61.118" style="opacity:1;fill:#000000;fill-opacity:1;fill-rule:nonzero;stroke:none;stroke-width:8;stroke-linecap:round;stroke-linejoin:round;stroke-miterlimit:4;stroke-dasharray:none;stroke-dashoffset:0;stroke-opacity:1"/><circle id="circle8499" cx="199.627" cy="736.819" r="46.095" style="opacity:1;fill:#ffffff;fill-opacity:1;fill-rule:nonzero;stroke:none;stroke-width:8;stroke-linecap:round;stroke-linejoin:round;stroke-miterlimit:4;stroke-dasharray:none;stroke-dashoffset:0;stroke-opacity:1"/><circle id="circle8501" cx="199.627" cy="736.819" r="39.693" style="opacity:1;fill:#000037;fill-opacity:1;fill-rule:nonzero;stroke:none;stroke-width:8;stroke-linecap:round;stroke-linejoin:round;stroke-miterlimit:4;stroke-dasharray:none;stroke-dashoffset:0;stroke-opacity:1"/><path id="path8503" d="m 216.09347,-738.177 a 21.547712,21.547714 0 0 1 -21.1426,21.5439 21.547712,21.547714 0 0 1 -21.93759,-20.73383 21.547712,21.547714 0 0 1 20.31773,-22.32352 21.547712,21.547714 0 0 1 22.70156,19.89445" style="opacity:1;fill:none;fill-opacity:0.29670332;fill-rule:nonzero;stroke:#ffffff;stroke-width:6.75044918;stroke-linecap:round;stroke-linejoin:round;stroke-miterlimit:4;stroke-dasharray:13.50089867,13.50089867;stroke-dashoffset:0;stroke-opacity:1" transform="rotate(-.395)scale(1 -1)"/><circle id="circle8505" cx="199.627" cy="736.819" r="8.032" style="opacity:1;fill:#ffffff;fill-opacity:1;fill-rule:nonzero;stroke:none;stroke-width:8;stroke-linecap:round;stroke-linejoin:round;stroke-miterlimit:4;stroke-dasharray:none;stroke-dashoffset:0;stroke-opacity:1"/><circle id="circle8507" cx="199.627" cy="736.819" r="3.668" style="opacity:1;fill:#000037;fill-opacity:1;fill-rule:nonzero;stroke:none;stroke-width:8;stroke-linecap:round;stroke-linejoin:round;stroke-miterlimit:4;stroke-dasharray:none;stroke-dashoffset:0;stroke-opacity:1"/><circle id="circle8513" cx="100.455" cy="736.819" r="46.095" style="opacity:1;fill:#ffffff;fill-opacity:1;fill-rule:nonzero;stroke:none;stroke-width:8;stroke-linecap:round;stroke-linejoin:round;stroke-miterlimit:4;stroke-dasharray:none;stroke-dashoffset:0;stroke-opacity:1"/><circle id="circle8515" cx="100.455" cy="736.819" r="39.693" style="opacity:1;fill:#000037;fill-opacity:1;fill-rule:nonzero;stroke:none;stroke-width:8;stroke-linecap:round;stroke-linejoin:round;stroke-miterlimit:4;stroke-dasharray:none;stroke-dashoffset:0;stroke-opacity:1"/><path id="path8517" d="m 116.92411,-737.49353 a 21.547712,21.547714 0 0 1 -21.142607,21.54391 21.547712,21.547714 0 0 1 -21.937587,-20.73384 21.547712,21.547714 0 0 1 20.317733,-22.32352 21.547712,21.547714 0 0 1 22.701551,19.89446" style="opacity:1;fill:none;fill-opacity:0.29670332;fill-rule:nonzero;stroke:#ffffff;stroke-width:6.75044918;stroke-linecap:round;stroke-linejoin:round;stroke-miterlimit:4;stroke-dasharray:13.50089867,13.50089867;stroke-dashoffset:0;stroke-opacity:1" transform="rotate(-.395)scale(1 -1)"/><circle id="circle8519" cx="100.455" cy="736.819" r="8.032" style="opacity:1;fill:#ffffff;fill-opacity:1;fill-rule:nonzero;stroke:none;stroke-width:8;stroke-linecap:round;stroke-linejoin:round;stroke-miterlimit:4;stroke-dasharray:none;stroke-dashoffset:0;stroke-opacity:1"/><circle id="circle8521" cx="100.455" cy="736.819" r="3.668" style="opacity:1;fill:#000037;fill-opacity:1;fill-rule:nonzero;stroke:none;stroke-width:8;stroke-linecap:round;stroke-linejoin:round;stroke-miterlimit:4;stroke-dasharray:none;stroke-dashoffset:0;stroke-opacity:1"/></g></g></svg>