<svg xmlns="http://www.w3.org/2000/svg" id="svg2" width="300" height="400" viewBox="0 0 300 400"><g id="layer1" transform="translate(0 -652.362)"><g id="g8749" transform="translate(0 .001)"><circle id="circle8575" cx="97.786" cy="718.121" r="61.118" style="opacity:1;fill:#000000;fill-opacity:1;fill-rule:nonzero;stroke:none;stroke-width:8;stroke-linecap:round;stroke-linejoin:round;stroke-miterlimit:4;stroke-dasharray:none;stroke-dashoffset:0;stroke-opacity:1"/><circle id="circle8589" cx="97.786" cy="808.121" r="61.118" style="opacity:1;fill:#000000;fill-opacity:1;fill-rule:nonzero;stroke:none;stroke-width:8;stroke-linecap:round;stroke-linejoin:round;stroke-miterlimit:4;stroke-dasharray:none;stroke-dashoffset:0;stroke-opacity:1"/><circle id="circle8619" cx="97.786" cy="896.621" r="61.118" style="opacity:1;fill:#000000;fill-opacity:1;fill-rule:nonzero;stroke:none;stroke-width:8;stroke-linecap:round;stroke-linejoin:round;stroke-miterlimit:4;stroke-dasharray:none;stroke-dashoffset:0;stroke-opacity:1"/><circle id="circle8633" cx="97.786" cy="986.621" r="61.118" style="opacity:1;fill:#000000;fill-opacity:1;fill-rule:nonzero;stroke:none;stroke-width:8;stroke-linecap:round;stroke-linejoin:round;stroke-miterlimit:4;stroke-dasharray:none;stroke-dashoffset:0;stroke-opacity:1"/><circle id="circle8647" cx="202.214" cy="718.121" r="61.118" style="opacity:1;fill:#000000;fill-opacity:1;fill-rule:nonzero;stroke:none;stroke-width:8;stroke-linecap:round;stroke-linejoin:round;stroke-miterlimit:4;stroke-dasharray:none;stroke-dashoffset:0;stroke-opacity:1"/><circle id="circle8661" cx="202.214" cy="808.121" r="61.118" style="opacity:1;fill:#000000;fill-opacity:1;fill-rule:nonzero;stroke:none;stroke-width:8;stroke-linecap:round;stroke-linejoin:round;stroke-miterlimit:4;stroke-dasharray:none;stroke-dashoffset:0;stroke-opacity:1"/><circle id="circle8675" cx="202.214" cy="896.621" r="61.118" style="opacity:1;fill:#000000;fill-opacity:1;fill-rule:nonzero;stroke:none;stroke-width:8;stroke-linecap:round;stroke-linejoin:round;stroke-miterlimit:4;stroke-dasharray:none;stroke-dashoffset:0;stroke-opacity:1"/><circle id="circle8689" cx="202.214" cy="986.621" r="61.118" style="opacity:1;fill:#000000;fill-opacity:1;fill-rule:nonzero;stroke:none;stroke-width:8;stroke-linecap:round;stroke-linejoin:round;stroke-miterlimit:4;stroke-dasharray:none;stroke-dashoffset:0;stroke-opacity:1"/><circle id="circle8577" cx="97.786" cy="718.121" r="46.095" style="opacity:1;fill:#ffffff;fill-opacity:1;fill-rule:nonzero;stroke:none;stroke-width:8;stroke-linecap:round;stroke-linejoin:round;stroke-miterlimit:4;stroke-dasharray:none;stroke-dashoffset:0;stroke-opacity:1"/><circle id="circle8579" cx="97.786" cy="718.121" r="39.693" style="opacity:1;fill:#000037;fill-opacity:1;fill-rule:nonzero;stroke:none;stroke-width:8;stroke-linecap:round;stroke-linejoin:round;stroke-miterlimit:4;stroke-dasharray:none;stroke-dashoffset:0;stroke-opacity:1"/><path id="path8581" d="m 114.38392,-718.77771 a 21.547712,21.547714 0 0 1 -21.142601,21.54391 21.547712,21.547714 0 0 1 -21.937587,-20.73384 21.547712,21.547714 0 0 1 20.317733,-22.32352 21.547712,21.547714 0 0 1 22.701555,19.89446" style="opacity:1;fill:none;fill-opacity:0.29670332;fill-rule:nonzero;stroke:#ffffff;stroke-width:6.75044918;stroke-linecap:round;stroke-linejoin:round;stroke-miterlimit:4;stroke-dasharray:13.50089867,13.50089867;stroke-dashoffset:0;stroke-opacity:1" transform="rotate(-.395)scale(1 -1)"/><circle id="circle8583" cx="97.786" cy="718.121" r="8.032" style="opacity:1;fill:#ffffff;fill-opacity:1;fill-rule:nonzero;stroke:none;stroke-width:8;stroke-linecap:round;stroke-linejoin:round;stroke-miterlimit:4;stroke-dasharray:none;stroke-dashoffset:0;stroke-opacity:1"/><circle id="circle8585" cx="97.786" cy="718.121" r="3.668" style="opacity:1;fill:#000037;fill-opacity:1;fill-rule:nonzero;stroke:none;stroke-width:8;stroke-linecap:round;stroke-linejoin:round;stroke-miterlimit:4;stroke-dasharray:none;stroke-dashoffset:0;stroke-opacity:1"/><circle id="circle8591" cx="97.786" cy="808.121" r="46.095" style="opacity:1;fill:#ffffff;fill-opacity:1;fill-rule:nonzero;stroke:none;stroke-width:8;stroke-linecap:round;stroke-linejoin:round;stroke-miterlimit:4;stroke-dasharray:none;stroke-dashoffset:0;stroke-opacity:1"/><circle id="circle8593" cx="97.786" cy="808.121" r="39.693" style="opacity:1;fill:#000037;fill-opacity:1;fill-rule:nonzero;stroke:none;stroke-width:8;stroke-linecap:round;stroke-linejoin:round;stroke-miterlimit:4;stroke-dasharray:none;stroke-dashoffset:0;stroke-opacity:1"/><path id="path8595" d="m 113.76372,-808.77557 a 21.547712,21.547714 0 0 1 -21.14261,21.5439 21.547712,21.547714 0 0 1 -21.937587,-20.73383 21.547712,21.547714 0 0 1 20.317733,-22.32352 21.547712,21.547714 0 0 1 22.701554,19.89445" style="opacity:1;fill:none;fill-opacity:0.29670332;fill-rule:nonzero;stroke:#ffffff;stroke-width:6.75044918;stroke-linecap:round;stroke-linejoin:round;stroke-miterlimit:4;stroke-dasharray:13.50089867,13.50089867;stroke-dashoffset:0;stroke-opacity:1" transform="rotate(-.395)scale(1 -1)"/><circle id="circle8597" cx="97.786" cy="808.121" r="8.032" style="opacity:1;fill:#ffffff;fill-opacity:1;fill-rule:nonzero;stroke:none;stroke-width:8;stroke-linecap:round;stroke-linejoin:round;stroke-miterlimit:4;stroke-dasharray:none;stroke-dashoffset:0;stroke-opacity:1"/><circle id="circle8599" cx="97.786" cy="808.121" r="3.668" style="opacity:1;fill:#000037;fill-opacity:1;fill-rule:nonzero;stroke:none;stroke-width:8;stroke-linecap:round;stroke-linejoin:round;stroke-miterlimit:4;stroke-dasharray:none;stroke-dashoffset:0;stroke-opacity:1"/><circle id="circle8621" cx="97.786" cy="896.621" r="46.095" style="opacity:1;fill:#ffffff;fill-opacity:1;fill-rule:nonzero;stroke:none;stroke-width:8;stroke-linecap:round;stroke-linejoin:round;stroke-miterlimit:4;stroke-dasharray:none;stroke-dashoffset:0;stroke-opacity:1"/><circle id="circle8623" cx="97.786" cy="896.621" r="39.693" style="opacity:1;fill:#000037;fill-opacity:1;fill-rule:nonzero;stroke:none;stroke-width:8;stroke-linecap:round;stroke-linejoin:round;stroke-miterlimit:4;stroke-dasharray:none;stroke-dashoffset:0;stroke-opacity:1"/><path id="path8625" d="m 113.15384,-897.27344 a 21.547712,21.547714 0 0 1 -21.142609,21.54391 21.547712,21.547714 0 0 1 -21.937586,-20.73384 21.547712,21.547714 0 0 1 20.317733,-22.32351 21.547712,21.547714 0 0 1 22.701552,19.89445" style="opacity:1;fill:none;fill-opacity:0.29670332;fill-rule:nonzero;stroke:#ffffff;stroke-width:6.75044918;stroke-linecap:round;stroke-linejoin:round;stroke-miterlimit:4;stroke-dasharray:13.50089867,13.50089867;stroke-dashoffset:0;stroke-opacity:1" transform="rotate(-.395)scale(1 -1)"/><circle id="circle8627" cx="97.786" cy="896.621" r="8.032" style="opacity:1;fill:#ffffff;fill-opacity:1;fill-rule:nonzero;stroke:none;stroke-width:8;stroke-linecap:round;stroke-linejoin:round;stroke-miterlimit:4;stroke-dasharray:none;stroke-dashoffset:0;stroke-opacity:1"/><circle id="circle8629" cx="97.786" cy="896.621" r="3.668" style="opacity:1;fill:#000037;fill-opacity:1;fill-rule:nonzero;stroke:none;stroke-width:8;stroke-linecap:round;stroke-linejoin:round;stroke-miterlimit:4;stroke-dasharray:none;stroke-dashoffset:0;stroke-opacity:1"/><circle id="circle8635" cx="97.786" cy="986.621" r="46.095" style="opacity:1;fill:#ffffff;fill-opacity:1;fill-rule:nonzero;stroke:none;stroke-width:8;stroke-linecap:round;stroke-linejoin:round;stroke-miterlimit:4;stroke-dasharray:none;stroke-dashoffset:0;stroke-opacity:1"/><circle id="circle8637" cx="97.786" cy="986.621" r="39.693" style="opacity:1;fill:#000037;fill-opacity:1;fill-rule:nonzero;stroke:none;stroke-width:8;stroke-linecap:round;stroke-linejoin:round;stroke-miterlimit:4;stroke-dasharray:none;stroke-dashoffset:0;stroke-opacity:1"/><path id="path8639" d="m 112.53362,-987.2713 a 21.547712,21.547714 0 0 1 -21.142605,21.5439 21.547712,21.547714 0 0 1 -21.937586,-20.73383 21.547712,21.547714 0 0 1 20.317733,-22.32347 21.547712,21.547714 0 0 1 22.701548,19.8944" style="opacity:1;fill:none;fill-opacity:0.29670332;fill-rule:nonzero;stroke:#ffffff;stroke-width:6.75044918;stroke-linecap:round;stroke-linejoin:round;stroke-miterlimit:4;stroke-dasharray:13.50089867,13.50089867;stroke-dashoffset:0;stroke-opacity:1" transform="rotate(-.395)scale(1 -1)"/><circle id="circle8641" cx="97.786" cy="986.621" r="8.032" style="opacity:1;fill:#ffffff;fill-opacity:1;fill-rule:nonzero;stroke:none;stroke-width:8;stroke-linecap:round;stroke-linejoin:round;stroke-miterlimit:4;stroke-dasharray:none;stroke-dashoffset:0;stroke-opacity:1"/><circle id="circle8643" cx="97.786" cy="986.621" r="3.668" style="opacity:1;fill:#000037;fill-opacity:1;fill-rule:nonzero;stroke:none;stroke-width:8;stroke-linecap:round;stroke-linejoin:round;stroke-miterlimit:4;stroke-dasharray:none;stroke-dashoffset:0;stroke-opacity:1"/><circle id="circle8649" cx="202.214" cy="718.121" r="46.095" style="opacity:1;fill:#ffffff;fill-opacity:1;fill-rule:nonzero;stroke:none;stroke-width:8;stroke-linecap:round;stroke-linejoin:round;stroke-miterlimit:4;stroke-dasharray:none;stroke-dashoffset:0;stroke-opacity:1"/><circle id="circle8651" cx="202.214" cy="718.121" r="39.693" style="opacity:1;fill:#000037;fill-opacity:1;fill-rule:nonzero;stroke:none;stroke-width:8;stroke-linecap:round;stroke-linejoin:round;stroke-miterlimit:4;stroke-dasharray:none;stroke-dashoffset:0;stroke-opacity:1"/><path id="path8653" d="m 218.80952,-719.49738 a 21.547712,21.547714 0 0 1 -21.1426,21.54391 21.547712,21.547714 0 0 1 -21.93759,-20.73384 21.547712,21.547714 0 0 1 20.31773,-22.32351 21.547712,21.547714 0 0 1 22.70155,19.89445" style="opacity:1;fill:none;fill-opacity:0.29670332;fill-rule:nonzero;stroke:#ffffff;stroke-width:6.75044918;stroke-linecap:round;stroke-linejoin:round;stroke-miterlimit:4;stroke-dasharray:13.50089867,13.50089867;stroke-dashoffset:0;stroke-opacity:1" transform="rotate(-.395)scale(1 -1)"/><circle id="circle8655" cx="202.214" cy="718.121" r="8.032" style="opacity:1;fill:#ffffff;fill-opacity:1;fill-rule:nonzero;stroke:none;stroke-width:8;stroke-linecap:round;stroke-linejoin:round;stroke-miterlimit:4;stroke-dasharray:none;stroke-dashoffset:0;stroke-opacity:1"/><circle id="circle8657" cx="202.214" cy="718.121" r="3.668" style="opacity:1;fill:#000037;fill-opacity:1;fill-rule:nonzero;stroke:none;stroke-width:8;stroke-linecap:round;stroke-linejoin:round;stroke-miterlimit:4;stroke-dasharray:none;stroke-dashoffset:0;stroke-opacity:1"/><circle id="circle8663" cx="202.214" cy="808.121" r="46.095" style="opacity:1;fill:#ffffff;fill-opacity:1;fill-rule:nonzero;stroke:none;stroke-width:8;stroke-linecap:round;stroke-linejoin:round;stroke-miterlimit:4;stroke-dasharray:none;stroke-dashoffset:0;stroke-opacity:1"/><circle id="circle8665" cx="202.214" cy="808.121" r="39.693" style="opacity:1;fill:#000037;fill-opacity:1;fill-rule:nonzero;stroke:none;stroke-width:8;stroke-linecap:round;stroke-linejoin:round;stroke-miterlimit:4;stroke-dasharray:none;stroke-dashoffset:0;stroke-opacity:1"/><path id="path8667" d="m 218.1893,-809.49518 a 21.547712,21.547714 0 0 1 -21.14261,21.54391 21.547712,21.547714 0 0 1 -21.93758,-20.73384 21.547712,21.547714 0 0 1 20.31773,-22.32351 21.547712,21.547714 0 0 1 22.70155,19.89445" style="opacity:1;fill:none;fill-opacity:0.29670332;fill-rule:nonzero;stroke:#ffffff;stroke-width:6.75044918;stroke-linecap:round;stroke-linejoin:round;stroke-miterlimit:4;stroke-dasharray:13.50089867,13.50089867;stroke-dashoffset:0;stroke-opacity:1" transform="rotate(-.395)scale(1 -1)"/><circle id="circle8669" cx="202.214" cy="808.121" r="8.032" style="opacity:1;fill:#ffffff;fill-opacity:1;fill-rule:nonzero;stroke:none;stroke-width:8;stroke-linecap:round;stroke-linejoin:round;stroke-miterlimit:4;stroke-dasharray:none;stroke-dashoffset:0;stroke-opacity:1"/><circle id="circle8671" cx="202.214" cy="808.121" r="3.668" style="opacity:1;fill:#000037;fill-opacity:1;fill-rule:nonzero;stroke:none;stroke-width:8;stroke-linecap:round;stroke-linejoin:round;stroke-miterlimit:4;stroke-dasharray:none;stroke-dashoffset:0;stroke-opacity:1"/><circle id="circle8677" cx="202.214" cy="896.621" r="46.095" style="opacity:1;fill:#ffffff;fill-opacity:1;fill-rule:nonzero;stroke:none;stroke-width:8;stroke-linecap:round;stroke-linejoin:round;stroke-miterlimit:4;stroke-dasharray:none;stroke-dashoffset:0;stroke-opacity:1"/><circle id="circle8679" cx="202.214" cy="896.621" r="39.693" style="opacity:1;fill:#000037;fill-opacity:1;fill-rule:nonzero;stroke:none;stroke-width:8;stroke-linecap:round;stroke-linejoin:round;stroke-miterlimit:4;stroke-dasharray:none;stroke-dashoffset:0;stroke-opacity:1"/><path id="path8681" d="m 217.57942,-897.99304 a 21.547712,21.547714 0 0 1 -21.14261,21.5439 21.547712,21.547714 0 0 1 -21.93758,-20.73383 21.547712,21.547714 0 0 1 20.31773,-22.32352 21.547712,21.547714 0 0 1 22.70155,19.89445" style="opacity:1;fill:none;fill-opacity:0.29670332;fill-rule:nonzero;stroke:#ffffff;stroke-width:6.75044918;stroke-linecap:round;stroke-linejoin:round;stroke-miterlimit:4;stroke-dasharray:13.50089867,13.50089867;stroke-dashoffset:0;stroke-opacity:1" transform="rotate(-.395)scale(1 -1)"/><circle id="circle8683" cx="202.214" cy="896.621" r="8.032" style="opacity:1;fill:#ffffff;fill-opacity:1;fill-rule:nonzero;stroke:none;stroke-width:8;stroke-linecap:round;stroke-linejoin:round;stroke-miterlimit:4;stroke-dasharray:none;stroke-dashoffset:0;stroke-opacity:1"/><circle id="circle8685" cx="202.214" cy="896.621" r="3.668" style="opacity:1;fill:#000037;fill-opacity:1;fill-rule:nonzero;stroke:none;stroke-width:8;stroke-linecap:round;stroke-linejoin:round;stroke-miterlimit:4;stroke-dasharray:none;stroke-dashoffset:0;stroke-opacity:1"/><circle id="circle8691" cx="202.214" cy="986.621" r="46.095" style="opacity:1;fill:#ffffff;fill-opacity:1;fill-rule:nonzero;stroke:none;stroke-width:8;stroke-linecap:round;stroke-linejoin:round;stroke-miterlimit:4;stroke-dasharray:none;stroke-dashoffset:0;stroke-opacity:1"/><circle id="circle8693" cx="202.214" cy="986.621" r="39.693" style="opacity:1;fill:#000037;fill-opacity:1;fill-rule:nonzero;stroke:none;stroke-width:8;stroke-linecap:round;stroke-linejoin:round;stroke-miterlimit:4;stroke-dasharray:none;stroke-dashoffset:0;stroke-opacity:1"/><path id="path8695" d="m 216.95921,-987.99091 a 21.547712,21.547714 0 0 1 -21.1426,21.54391 21.547712,21.547714 0 0 1 -21.93759,-20.73384 21.547712,21.547714 0 0 1 20.31773,-22.32356 21.547712,21.547714 0 0 1 22.70155,19.8945" style="opacity:1;fill:none;fill-opacity:0.29670332;fill-rule:nonzero;stroke:#ffffff;stroke-width:6.75044918;stroke-linecap:round;stroke-linejoin:round;stroke-miterlimit:4;stroke-dasharray:13.50089867,13.50089867;stroke-dashoffset:0;stroke-opacity:1" transform="rotate(-.395)scale(1 -1)"/><circle id="circle8697" cx="202.214" cy="986.621" r="8.032" style="opacity:1;fill:#ffffff;fill-opacity:1;fill-rule:nonzero;stroke:none;stroke-width:8;stroke-linecap:round;stroke-linejoin:round;stroke-miterlimit:4;stroke-dasharray:none;stroke-dashoffset:0;stroke-opacity:1"/><circle id="circle8699" cx="202.214" cy="986.621" r="3.668" style="opacity:1;fill:#000037;fill-opacity:1;fill-rule:nonzero;stroke:none;stroke-width:8;stroke-linecap:round;stroke-linejoin:round;stroke-miterlimit:4;stroke-dasharray:none;stroke-dashoffset:0;stroke-opacity:1"/></g></g></svg>