<svg xmlns="http://www.w3.org/2000/svg" id="svg2" width="300" height="400" viewBox="0 0 300 400"><g id="layer1" transform="translate(0 -652.362)"><g id="g7443" transform="translate(0 .374)"><g id="g7305"><circle id="circle7275" cx="237.424" cy="714.989" r="61.118" style="opacity:1;fill:#000000;fill-opacity:1;fill-rule:nonzero;stroke:none;stroke-width:8;stroke-linecap:round;stroke-linejoin:round;stroke-miterlimit:4;stroke-dasharray:none;stroke-dashoffset:0;stroke-opacity:1"/><circle id="circle7261" cx="62.769" cy="714.989" r="61.118" style="opacity:1;fill:#000000;fill-opacity:1;fill-rule:nonzero;stroke:none;stroke-width:8;stroke-linecap:round;stroke-linejoin:round;stroke-miterlimit:4;stroke-dasharray:none;stroke-dashoffset:0;stroke-opacity:1"/><circle id="circle7247" cx="150.096" cy="714.989" r="61.118" style="opacity:1;fill:#000000;fill-opacity:1;fill-rule:nonzero;stroke:none;stroke-width:8;stroke-linecap:round;stroke-linejoin:round;stroke-miterlimit:4;stroke-dasharray:none;stroke-dashoffset:0;stroke-opacity:1"/><circle id="circle7249" cx="150.096" cy="714.989" r="46.095" style="opacity:1;fill:#ffffff;fill-opacity:1;fill-rule:nonzero;stroke:none;stroke-width:8;stroke-linecap:round;stroke-linejoin:round;stroke-miterlimit:4;stroke-dasharray:none;stroke-dashoffset:0;stroke-opacity:1"/><circle id="circle7251" cx="150.096" cy="714.989" r="39.693" style="opacity:1;fill:#000037;fill-opacity:1;fill-rule:nonzero;stroke:none;stroke-width:8;stroke-linecap:round;stroke-linejoin:round;stroke-miterlimit:4;stroke-dasharray:none;stroke-dashoffset:0;stroke-opacity:1"/><path id="path7253" d="m 166.71477,-716.00623 a 21.547712,21.547714 0 0 1 -21.14261,21.54391 21.547712,21.547714 0 0 1 -21.93759,-20.73384 21.547712,21.547714 0 0 1 20.31774,-22.32351 21.547712,21.547714 0 0 1 22.70155,19.89445" style="opacity:1;fill:none;fill-opacity:0.29670332;fill-rule:nonzero;stroke:#ffffff;stroke-width:6.75044918;stroke-linecap:round;stroke-linejoin:round;stroke-miterlimit:4;stroke-dasharray:13.50089867,13.50089867;stroke-dashoffset:0;stroke-opacity:1" transform="rotate(-.395)scale(1 -1)"/><circle id="circle7255" cx="150.096" cy="714.989" r="8.032" style="opacity:1;fill:#ffffff;fill-opacity:1;fill-rule:nonzero;stroke:none;stroke-width:8;stroke-linecap:round;stroke-linejoin:round;stroke-miterlimit:4;stroke-dasharray:none;stroke-dashoffset:0;stroke-opacity:1"/><circle id="circle7257" cx="150.096" cy="714.989" r="3.668" style="opacity:1;fill:#000037;fill-opacity:1;fill-rule:nonzero;stroke:none;stroke-width:8;stroke-linecap:round;stroke-linejoin:round;stroke-miterlimit:4;stroke-dasharray:none;stroke-dashoffset:0;stroke-opacity:1"/><circle id="circle7263" cx="62.769" cy="714.989" r="46.095" style="opacity:1;fill:#ffffff;fill-opacity:1;fill-rule:nonzero;stroke:none;stroke-width:8;stroke-linecap:round;stroke-linejoin:round;stroke-miterlimit:4;stroke-dasharray:none;stroke-dashoffset:0;stroke-opacity:1"/><circle id="circle7265" cx="62.769" cy="714.989" r="39.693" style="opacity:1;fill:#000037;fill-opacity:1;fill-rule:nonzero;stroke:none;stroke-width:8;stroke-linecap:round;stroke-linejoin:round;stroke-miterlimit:4;stroke-dasharray:none;stroke-dashoffset:0;stroke-opacity:1"/><path id="path7267" d="m 79.389147,-715.40442 a 21.547712,21.547714 0 0 1 -21.142606,21.54391 21.547712,21.547714 0 0 1 -21.937586,-20.73384 21.547712,21.547714 0 0 1 20.317733,-22.32352 21.547712,21.547714 0 0 1 22.701551,19.89446" style="opacity:1;fill:none;fill-opacity:0.29670332;fill-rule:nonzero;stroke:#ffffff;stroke-width:6.75044918;stroke-linecap:round;stroke-linejoin:round;stroke-miterlimit:4;stroke-dasharray:13.50089867,13.50089867;stroke-dashoffset:0;stroke-opacity:1" transform="rotate(-.395)scale(1 -1)"/><circle id="circle7269" cx="62.769" cy="714.989" r="8.032" style="opacity:1;fill:#ffffff;fill-opacity:1;fill-rule:nonzero;stroke:none;stroke-width:8;stroke-linecap:round;stroke-linejoin:round;stroke-miterlimit:4;stroke-dasharray:none;stroke-dashoffset:0;stroke-opacity:1"/><circle id="circle7271" cx="62.769" cy="714.989" r="3.668" style="opacity:1;fill:#000037;fill-opacity:1;fill-rule:nonzero;stroke:none;stroke-width:8;stroke-linecap:round;stroke-linejoin:round;stroke-miterlimit:4;stroke-dasharray:none;stroke-dashoffset:0;stroke-opacity:1"/><circle id="circle7277" cx="237.424" cy="714.989" r="46.095" style="opacity:1;fill:#ffffff;fill-opacity:1;fill-rule:nonzero;stroke:none;stroke-width:8;stroke-linecap:round;stroke-linejoin:round;stroke-miterlimit:4;stroke-dasharray:none;stroke-dashoffset:0;stroke-opacity:1"/><circle id="circle7279" cx="237.424" cy="714.989" r="39.693" style="opacity:1;fill:#000037;fill-opacity:1;fill-rule:nonzero;stroke:none;stroke-width:8;stroke-linecap:round;stroke-linejoin:round;stroke-miterlimit:4;stroke-dasharray:none;stroke-dashoffset:0;stroke-opacity:1"/><path id="path7281" d="m 254.04037,-716.60803 a 21.547712,21.547714 0 0 1 -21.1426,21.5439 21.547712,21.547714 0 0 1 -21.93759,-20.73383 21.547712,21.547714 0 0 1 20.31773,-22.32352 21.547712,21.547714 0 0 1 22.70155,19.89445" style="opacity:1;fill:none;fill-opacity:0.29670332;fill-rule:nonzero;stroke:#ffffff;stroke-width:6.75044918;stroke-linecap:round;stroke-linejoin:round;stroke-miterlimit:4;stroke-dasharray:13.50089867,13.50089867;stroke-dashoffset:0;stroke-opacity:1" transform="rotate(-.395)scale(1 -1)"/><circle id="circle7283" cx="237.424" cy="714.989" r="8.032" style="opacity:1;fill:#ffffff;fill-opacity:1;fill-rule:nonzero;stroke:none;stroke-width:8;stroke-linecap:round;stroke-linejoin:round;stroke-miterlimit:4;stroke-dasharray:none;stroke-dashoffset:0;stroke-opacity:1"/><circle id="circle7285" cx="237.424" cy="714.989" r="3.668" style="opacity:1;fill:#000037;fill-opacity:1;fill-rule:nonzero;stroke:none;stroke-width:8;stroke-linecap:round;stroke-linejoin:round;stroke-miterlimit:4;stroke-dasharray:none;stroke-dashoffset:0;stroke-opacity:1"/></g><g id="g7325" transform="translate(0 274)"><circle id="circle7327" cx="237.424" cy="714.989" r="61.118" style="opacity:1;fill:#000000;fill-opacity:1;fill-rule:nonzero;stroke:none;stroke-width:8;stroke-linecap:round;stroke-linejoin:round;stroke-miterlimit:4;stroke-dasharray:none;stroke-dashoffset:0;stroke-opacity:1"/><circle id="circle7329" cx="62.769" cy="714.989" r="61.118" style="opacity:1;fill:#000000;fill-opacity:1;fill-rule:nonzero;stroke:none;stroke-width:8;stroke-linecap:round;stroke-linejoin:round;stroke-miterlimit:4;stroke-dasharray:none;stroke-dashoffset:0;stroke-opacity:1"/><circle id="circle7331" cx="150.096" cy="714.989" r="61.118" style="opacity:1;fill:#000000;fill-opacity:1;fill-rule:nonzero;stroke:none;stroke-width:8;stroke-linecap:round;stroke-linejoin:round;stroke-miterlimit:4;stroke-dasharray:none;stroke-dashoffset:0;stroke-opacity:1"/><circle id="circle7333" cx="150.096" cy="714.989" r="46.095" style="opacity:1;fill:#ffffff;fill-opacity:1;fill-rule:nonzero;stroke:none;stroke-width:8;stroke-linecap:round;stroke-linejoin:round;stroke-miterlimit:4;stroke-dasharray:none;stroke-dashoffset:0;stroke-opacity:1"/><circle id="circle7335" cx="150.096" cy="714.989" r="39.693" style="opacity:1;fill:#000037;fill-opacity:1;fill-rule:nonzero;stroke:none;stroke-width:8;stroke-linecap:round;stroke-linejoin:round;stroke-miterlimit:4;stroke-dasharray:none;stroke-dashoffset:0;stroke-opacity:1"/><path id="path7337" d="m 166.71477,-716.00623 a 21.547712,21.547714 0 0 1 -21.14261,21.54391 21.547712,21.547714 0 0 1 -21.93759,-20.73384 21.547712,21.547714 0 0 1 20.31774,-22.32351 21.547712,21.547714 0 0 1 22.70155,19.89445" style="opacity:1;fill:none;fill-opacity:0.29670332;fill-rule:nonzero;stroke:#ffffff;stroke-width:6.75044918;stroke-linecap:round;stroke-linejoin:round;stroke-miterlimit:4;stroke-dasharray:13.50089867,13.50089867;stroke-dashoffset:0;stroke-opacity:1" transform="rotate(-.395)scale(1 -1)"/><circle id="circle7339" cx="150.096" cy="714.989" r="8.032" style="opacity:1;fill:#ffffff;fill-opacity:1;fill-rule:nonzero;stroke:none;stroke-width:8;stroke-linecap:round;stroke-linejoin:round;stroke-miterlimit:4;stroke-dasharray:none;stroke-dashoffset:0;stroke-opacity:1"/><circle id="circle7341" cx="150.096" cy="714.989" r="3.668" style="opacity:1;fill:#000037;fill-opacity:1;fill-rule:nonzero;stroke:none;stroke-width:8;stroke-linecap:round;stroke-linejoin:round;stroke-miterlimit:4;stroke-dasharray:none;stroke-dashoffset:0;stroke-opacity:1"/><circle id="circle7343" cx="62.769" cy="714.989" r="46.095" style="opacity:1;fill:#ffffff;fill-opacity:1;fill-rule:nonzero;stroke:none;stroke-width:8;stroke-linecap:round;stroke-linejoin:round;stroke-miterlimit:4;stroke-dasharray:none;stroke-dashoffset:0;stroke-opacity:1"/><circle id="circle7345" cx="62.769" cy="714.989" r="39.693" style="opacity:1;fill:#000037;fill-opacity:1;fill-rule:nonzero;stroke:none;stroke-width:8;stroke-linecap:round;stroke-linejoin:round;stroke-miterlimit:4;stroke-dasharray:none;stroke-dashoffset:0;stroke-opacity:1"/><path id="path7347" d="m 79.389147,-715.40442 a 21.547712,21.547714 0 0 1 -21.142606,21.54391 21.547712,21.547714 0 0 1 -21.937586,-20.73384 21.547712,21.547714 0 0 1 20.317733,-22.32352 21.547712,21.547714 0 0 1 22.701551,19.89446" style="opacity:1;fill:none;fill-opacity:0.29670332;fill-rule:nonzero;stroke:#ffffff;stroke-width:6.75044918;stroke-linecap:round;stroke-linejoin:round;stroke-miterlimit:4;stroke-dasharray:13.50089867,13.50089867;stroke-dashoffset:0;stroke-opacity:1" transform="rotate(-.395)scale(1 -1)"/><circle id="circle7349" cx="62.769" cy="714.989" r="8.032" style="opacity:1;fill:#ffffff;fill-opacity:1;fill-rule:nonzero;stroke:none;stroke-width:8;stroke-linecap:round;stroke-linejoin:round;stroke-miterlimit:4;stroke-dasharray:none;stroke-dashoffset:0;stroke-opacity:1"/><circle id="circle7351" cx="62.769" cy="714.989" r="3.668" style="opacity:1;fill:#000037;fill-opacity:1;fill-rule:nonzero;stroke:none;stroke-width:8;stroke-linecap:round;stroke-linejoin:round;stroke-miterlimit:4;stroke-dasharray:none;stroke-dashoffset:0;stroke-opacity:1"/><circle id="circle7353" cx="237.424" cy="714.989" r="46.095" style="opacity:1;fill:#ffffff;fill-opacity:1;fill-rule:nonzero;stroke:none;stroke-width:8;stroke-linecap:round;stroke-linejoin:round;stroke-miterlimit:4;stroke-dasharray:none;stroke-dashoffset:0;stroke-opacity:1"/><circle id="circle7355" cx="237.424" cy="714.989" r="39.693" style="opacity:1;fill:#000037;fill-opacity:1;fill-rule:nonzero;stroke:none;stroke-width:8;stroke-linecap:round;stroke-linejoin:round;stroke-miterlimit:4;stroke-dasharray:none;stroke-dashoffset:0;stroke-opacity:1"/><path id="path7357" d="m 254.04037,-716.60803 a 21.547712,21.547714 0 0 1 -21.1426,21.5439 21.547712,21.547714 0 0 1 -21.93759,-20.73383 21.547712,21.547714 0 0 1 20.31773,-22.32352 21.547712,21.547714 0 0 1 22.70155,19.89445" style="opacity:1;fill:none;fill-opacity:0.29670332;fill-rule:nonzero;stroke:#ffffff;stroke-width:6.75044918;stroke-linecap:round;stroke-linejoin:round;stroke-miterlimit:4;stroke-dasharray:13.50089867,13.50089867;stroke-dashoffset:0;stroke-opacity:1" transform="rotate(-.395)scale(1 -1)"/><circle id="circle7359" cx="237.424" cy="714.989" r="8.032" style="opacity:1;fill:#ffffff;fill-opacity:1;fill-rule:nonzero;stroke:none;stroke-width:8;stroke-linecap:round;stroke-linejoin:round;stroke-miterlimit:4;stroke-dasharray:none;stroke-dashoffset:0;stroke-opacity:1"/><circle id="circle7361" cx="237.424" cy="714.989" r="3.668" style="opacity:1;fill:#000037;fill-opacity:1;fill-rule:nonzero;stroke:none;stroke-width:8;stroke-linecap:round;stroke-linejoin:round;stroke-miterlimit:4;stroke-dasharray:none;stroke-dashoffset:0;stroke-opacity:1"/></g><g id="g7423"><circle id="circle7379" cx="63.029" cy="852.401" r="61.118" style="opacity:1;fill:#000000;fill-opacity:1;fill-rule:nonzero;stroke:none;stroke-width:8;stroke-linecap:round;stroke-linejoin:round;stroke-miterlimit:4;stroke-dasharray:none;stroke-dashoffset:0;stroke-opacity:1"/><circle id="circle7393" cx="237.684" cy="852.401" r="61.118" style="opacity:1;fill:#000000;fill-opacity:1;fill-rule:nonzero;stroke:none;stroke-width:8;stroke-linecap:round;stroke-linejoin:round;stroke-miterlimit:4;stroke-dasharray:none;stroke-dashoffset:0;stroke-opacity:1"/><circle id="circle7365" cx="150.003" cy="852.401" r="61.118" style="opacity:1;fill:#000000;fill-opacity:1;fill-rule:nonzero;stroke:none;stroke-width:8;stroke-linecap:round;stroke-linejoin:round;stroke-miterlimit:4;stroke-dasharray:none;stroke-dashoffset:0;stroke-opacity:1"/><circle id="circle7367" cx="150.003" cy="852.401" r="46.095" style="opacity:1;fill:#ffffff;fill-opacity:1;fill-rule:nonzero;stroke:none;stroke-width:8;stroke-linecap:round;stroke-linejoin:round;stroke-miterlimit:4;stroke-dasharray:none;stroke-dashoffset:0;stroke-opacity:1"/><circle id="circle7369" cx="150.003" cy="852.401" r="39.693" style="opacity:1;fill:#b93c3c;fill-opacity:1;fill-rule:nonzero;stroke:none;stroke-width:8;stroke-linecap:round;stroke-linejoin:round;stroke-miterlimit:4;stroke-dasharray:none;stroke-dashoffset:0;stroke-opacity:1"/><path id="path7371" d="m 165.67438,-853.41418 a 21.547712,21.547714 0 0 1 -21.14261,21.5439 21.547712,21.547714 0 0 1 -21.93759,-20.73383 21.547712,21.547714 0 0 1 20.31774,-22.32352 21.547712,21.547714 0 0 1 22.70155,19.89445" style="opacity:1;fill:none;fill-opacity:0.29670332;fill-rule:nonzero;stroke:#ffffff;stroke-width:6.75044918;stroke-linecap:round;stroke-linejoin:round;stroke-miterlimit:4;stroke-dasharray:13.50089867,13.50089867;stroke-dashoffset:0;stroke-opacity:1" transform="rotate(-.395)scale(1 -1)"/><circle id="circle7373" cx="150.003" cy="852.401" r="8.032" style="opacity:1;fill:#ffffff;fill-opacity:1;fill-rule:nonzero;stroke:none;stroke-width:8;stroke-linecap:round;stroke-linejoin:round;stroke-miterlimit:4;stroke-dasharray:none;stroke-dashoffset:0;stroke-opacity:1"/><circle id="circle7375" cx="150.003" cy="852.401" r="3.668" style="opacity:1;fill:#b93c3c;fill-opacity:1;fill-rule:nonzero;stroke:none;stroke-width:8;stroke-linecap:round;stroke-linejoin:round;stroke-miterlimit:4;stroke-dasharray:none;stroke-dashoffset:0;stroke-opacity:1"/><circle id="circle7381" cx="63.029" cy="852.401" r="46.095" style="opacity:1;fill:#ffffff;fill-opacity:1;fill-rule:nonzero;stroke:none;stroke-width:8;stroke-linecap:round;stroke-linejoin:round;stroke-miterlimit:4;stroke-dasharray:none;stroke-dashoffset:0;stroke-opacity:1"/><circle id="circle7383" cx="63.029" cy="852.401" r="39.693" style="opacity:1;fill:#b93c3c;fill-opacity:1;fill-rule:nonzero;stroke:none;stroke-width:8;stroke-linecap:round;stroke-linejoin:round;stroke-miterlimit:4;stroke-dasharray:none;stroke-dashoffset:0;stroke-opacity:1"/><path id="path7385" d="m 78.702318,-852.81482 a 21.547712,21.547714 0 0 1 -21.142606,21.54391 21.547712,21.547714 0 0 1 -21.937586,-20.73384 21.547712,21.547714 0 0 1 20.317733,-22.32352 21.547712,21.547714 0 0 1 22.701551,19.89446" style="opacity:1;fill:none;fill-opacity:0.29670332;fill-rule:nonzero;stroke:#ffffff;stroke-width:6.75044918;stroke-linecap:round;stroke-linejoin:round;stroke-miterlimit:4;stroke-dasharray:13.50089867,13.50089867;stroke-dashoffset:0;stroke-opacity:1" transform="rotate(-.395)scale(1 -1)"/><circle id="circle7387" cx="63.029" cy="852.401" r="8.032" style="opacity:1;fill:#ffffff;fill-opacity:1;fill-rule:nonzero;stroke:none;stroke-width:8;stroke-linecap:round;stroke-linejoin:round;stroke-miterlimit:4;stroke-dasharray:none;stroke-dashoffset:0;stroke-opacity:1"/><circle id="circle7389" cx="63.029" cy="852.401" r="3.668" style="opacity:1;fill:#b93c3c;fill-opacity:1;fill-rule:nonzero;stroke:none;stroke-width:8;stroke-linecap:round;stroke-linejoin:round;stroke-miterlimit:4;stroke-dasharray:none;stroke-dashoffset:0;stroke-opacity:1"/><circle id="circle7395" cx="237.684" cy="852.401" r="46.095" style="opacity:1;fill:#ffffff;fill-opacity:1;fill-rule:nonzero;stroke:none;stroke-width:8;stroke-linecap:round;stroke-linejoin:round;stroke-miterlimit:4;stroke-dasharray:none;stroke-dashoffset:0;stroke-opacity:1"/><circle id="circle7397" cx="237.684" cy="852.401" r="39.693" style="opacity:1;fill:#b93c3c;fill-opacity:1;fill-rule:nonzero;stroke:none;stroke-width:8;stroke-linecap:round;stroke-linejoin:round;stroke-miterlimit:4;stroke-dasharray:none;stroke-dashoffset:0;stroke-opacity:1"/><path id="path7399" d="m 253.35354,-854.01843 a 21.547712,21.547714 0 0 1 -21.1426,21.5439 21.547712,21.547714 0 0 1 -21.93759,-20.73383 21.547712,21.547714 0 0 1 20.31773,-22.32352 21.547712,21.547714 0 0 1 22.70156,19.89445" style="opacity:1;fill:none;fill-opacity:0.29670332;fill-rule:nonzero;stroke:#ffffff;stroke-width:6.75044918;stroke-linecap:round;stroke-linejoin:round;stroke-miterlimit:4;stroke-dasharray:13.50089867,13.50089867;stroke-dashoffset:0;stroke-opacity:1" transform="rotate(-.395)scale(1 -1)"/><circle id="circle7401" cx="237.684" cy="852.401" r="8.032" style="opacity:1;fill:#ffffff;fill-opacity:1;fill-rule:nonzero;stroke:none;stroke-width:8;stroke-linecap:round;stroke-linejoin:round;stroke-miterlimit:4;stroke-dasharray:none;stroke-dashoffset:0;stroke-opacity:1"/><circle id="circle7403" cx="237.684" cy="852.401" r="3.668" style="opacity:1;fill:#b93c3c;fill-opacity:1;fill-rule:nonzero;stroke:none;stroke-width:8;stroke-linecap:round;stroke-linejoin:round;stroke-miterlimit:4;stroke-dasharray:none;stroke-dashoffset:0;stroke-opacity:1"/></g></g></g></svg>